<svg id="Layer_1" enable-background="new 0 0 511 511" height="512" viewBox="0 0 511 511" width="512" xmlns="http://www.w3.org/2000/svg"><g><path d="m423.5 351.5h-8v-48h8c13.255 0 24 10.745 24 24 0 13.255-10.745 24-24 24z" fill="#d03582"/><path d="m399.5 455.5h-320c-8.837 0-16-7.163-16-16v-216c0-13.255 10.745-24 24-24h312c8.837 0 16 7.163 16 16v224c0 8.837-7.163 16-16 16z" fill="#efc17a"/><path d="m111.5 7.5h160v240h-160z" fill="#d8fc7e"/><path d="m271.5 67.5-160 160h160z" fill="#7bdaa9"/><path d="m143.5 39.5v88c0-26.51 21.49-48 48-48s48 21.49 48 48v-88z" fill="#d8fc7e"/><path d="m214.334 144.666c-6.476-4.512-14.343-7.166-22.834-7.166-22.091 0-40 17.909-40 40 0 8.491 2.653 16.358 7.166 22.834z" fill="#fff"/><path d="m214.332 144.668c-4.121-2.869-8.805-4.985-13.856-6.144l-47.952 47.952c1.159 5.051 3.275 9.735 6.144 13.856z" fill="#c8d1da"/><path d="m335.5 247.5 80-80-112-112-192 192" fill="#d8fc7e"/><path d="m351.5 231.5-16 16h-224l16-16z" fill="#7bdaa9"/><path d="m367.5 167.5-64-64-64 64 .121.121c17.617-17.49 46.075-17.454 63.644.115s17.604 46.026.115 63.644l.121.121z" fill="#d8fc7e"/><circle cx="239.5" cy="231.5" fill="#fff" r="40"/><path d="m276.162 247.5c2.142-4.901 3.338-10.31 3.338-16h-80c0 5.69 1.196 11.099 3.338 16z" fill="#c8d1da"/><path d="m367.5 503.5h-288c-8.837 0-16-7.163-16-16v-240h304c8.837 0 16 7.163 16 16v224c0 8.837-7.163 16-16 16z" fill="#f8e868"/><path d="m367.5 247.5h-8v232c0 4.418-3.582 8-8 8h-288c0 8.836 7.163 16 16 16h288c8.837 0 16-7.163 16-16v-224c0-8.837-7.163-16-16-16z" fill="#efc17a"/><path d="m423.5 351.5h-80c-13.255 0-24 10.745-24 24 0 13.255 10.745 24 24 24h80c13.255 0 24-10.745 24-24v-48c0 13.255-10.745 24-24 24z" fill="#e46a4a"/><path d="m431.5 350.129v25.371c0 4.418-3.582 8-8 8h-96c-2.424 0-4.763-.363-6.969-1.031 2.986 9.855 12.138 17.031 22.969 17.031h80c13.255 0 24-10.745 24-24v-48c0 10.449-6.68 19.333-16 22.629z" fill="#d03582"/><g><g><path d="m183.5 368h16v15h-16z" fill="#fff"/></g><g><path d="m215.5 368h16v15h-16z" fill="#fff"/></g><g><path d="m247.5 368h16v15h-16z" fill="#fff"/></g></g><g><path d="m244.803 173.039c36.562-33.881 87.024 16.635 53.158 53.157l10.606 10.606c.039-.039.075-.081.114-.12l.121.121 69.303-69.304-74.605-74.605-69.303 69.303.121.121c-.04.04-.081.075-.121.115zm58.697-58.933 53.394 53.394-32.968 32.968c1.124-28.86-24.544-54.517-53.394-53.393z"/><path d="m423.5 296h-.5v-80.5c0-12.279-9.468-22.382-21.486-23.408l24.592-24.592-122.606-122.606-56.5 56.5v-69.394h-111v95.5h15c1.072-47.701 67.317-55.584 79.777-9.884l-17.605 17.604c-41.004-20.747-84.694 22.971-63.952 63.952l-30.22 30.221v-214.393h145v40.5h15v-55.5h-175v192h-16.5c-17.369 0-31.5 14.131-31.5 31.5v264c0 12.958 10.542 23.5 23.5 23.5h288c12.958 0 23.5-10.542 23.5-23.5v-24.5h8.5c12.958 0 23.5-10.542 23.5-23.5v-32.5c17.54.28 32.016-13.951 32-31.5v-48c0-17.369-14.131-31.5-31.5-31.5zm-18.606-128.5-72.5 72.5h-46.165c5.506-28.696-17.473-56.299-46.729-56-29.251-.301-52.24 27.306-46.728 56h-63.165l173.893-173.894zm-196.77 72.5c-5.748-20.203 10.317-41.307 31.376-41 21.055-.308 37.128 20.798 31.375 41zm-16.624-168c-15.964 0-30.366 6.784-40.5 17.61v-42.61h81v42.578c-10.191-10.861-24.657-17.578-40.5-17.578zm-32.5 105.5c-.379-21.767 22.274-37.997 42.751-30.857l-41.108 41.108c-1.084-3.269-1.643-6.715-1.643-10.251zm-71.5 29.5h16.5v33h-16.5c-21.86-.83-21.852-32.175 0-33zm280 289h-288c-4.687 0-8.5-3.813-8.5-8.5v-237.181c4.802 2.965 10.454 4.681 16.5 4.681h280c4.687 0 8.5 3.813 8.5 8.5v64h15v-64c0-12.958-10.542-23.5-23.5-23.5h-13.893l33-33h12.893c4.687 0 8.5 3.813 8.5 8.5v128.5h-49v-60.5c0-6.341-5.159-11.5-11.5-11.5h-248c-6.341 0-11.5 5.159-11.5 11.5v184c0 6.341 5.159 11.5 11.5 11.5h248c6.341 0 11.5-5.159 11.5-11.5v-44h-15v40.5h-241v-177h241v57c-42.074.987-42.533 61.365-.5 63h32.5v80.5c0 4.687-3.813 8.5-8.5 8.5zm40.5-56.5c0 4.687-3.813 8.5-8.5 8.5h-8.5v-41h17zm32-64c0 9.098-7.402 16.5-16.5 16.5h-80c-9.098 0-16.5-7.402-16.5-16.5s7.402-16.5 16.5-16.5h80c6.045 0 11.699-1.712 16.5-4.676zm-16.5-31.5h-.5v-33c22.2.242 22.667 32.112.5 33z"/></g></g></svg>