<svg id="Capa_1" enable-background="new 0 0 512 512" height="512" viewBox="0 0 512 512" width="512" xmlns="http://www.w3.org/2000/svg"><g><g><path d="m162.307 336.328 20.98 90.302-20.98 77.87h-81.392c0-118.803 81.392-168.172 81.392-168.172z" fill="#475066"/><path d="m431.085 504.5h-81.392l-19.526-77.87 19.526-90.302s81.392 49.369 81.392 168.172z" fill="#475066"/><path d="m162.307 336.328h187.386v168.172h-187.386z" fill="#e5e9fb"/><path d="m259.842 404.942c13.305-6.97 30.658-4.422 42.451 7.37 9.001 9.001 12.616 21.243 10.723 32.451-1.152 6.823-6.53 12.2-13.352 13.352-11.208 1.893-23.45-1.721-32.451-10.723-11.794-11.792-14.341-29.145-7.371-42.45z" fill="#e55b70"/><path d="m305.035 445.441c-19.171 0-34.713-15.542-34.713-34.713 0-3.246.455-6.384 1.289-9.364-4.096.478-8.089 1.65-11.769 3.578-6.97 13.305-4.422 30.659 7.37 42.451 9.001 9.002 21.243 12.616 32.451 10.723 6.823-1.153 12.2-6.53 13.352-13.353.015-.087.022-.176.036-.263-2.574.609-5.256.941-8.016.941z" fill="#c54156"/><path d="m252.158 404.942c-13.305-6.97-30.658-4.422-42.451 7.37-9.002 9.001-12.616 21.243-10.723 32.451 1.153 6.823 6.53 12.2 13.352 13.352 11.208 1.893 23.45-1.721 32.451-10.723 11.794-11.792 14.341-29.145 7.371-42.45z" fill="#fb8999"/><path d="m216.584 444.68c0-20.388 16.467-36.924 36.825-37.048-.377-.912-.79-1.811-1.251-2.689-13.305-6.97-30.658-4.422-42.451 7.37-9.001 9.001-12.616 21.243-10.723 32.451 1.152 6.823 6.529 12.2 13.352 13.353 2.286.386 4.615.531 6.951.459-1.737-4.293-2.703-8.981-2.703-13.896z" fill="#e55b70"/><path d="m349.689 336.332s-7.693 80.685-93.689 80.685-93.689-80.685-93.689-80.685z" fill="#c54156"/><circle cx="404.145" cy="227.708" fill="#ffbd86" r="43.597"/><path d="m227.53 336.328v61.832c0 15.723 12.746 28.47 28.47 28.47s28.47-12.746 28.47-28.47v-61.832z" fill="#fb8999"/><path d="m248.244 376.974c0-16.253 7.237-30.807 18.652-40.646h-39.366v61.832c0 15.724 12.746 28.47 28.47 28.47 5.992 0 11.548-1.855 16.134-5.016-14.402-9.621-23.89-26.021-23.89-44.64z" fill="#e55b70"/><circle cx="256" cy="225.632" fill="#fed2a4" r="145.031"/><path d="m404.148 78.522v77.822h-296.296v-77.822l148.148-35.511z" fill="#475066"/><path d="m210.513 363.377c-36.653-28.772-60.2-73.483-60.2-123.694 0-30.618 8.763-59.184 23.907-83.344h-45.656c-4.925 9.038-8.915 18.658-11.844 28.73-2.789-.623-5.745-.958-8.866-.958-24.078 0-43.597 19.519-43.597 43.597s19.519 43.597 43.597 43.597c3.568 0 6.921-.438 10.053-1.247 14.15 44.006 48.746 78.843 92.606 93.319z" fill="#ffbd86"/><path d="m147.307 125.056c0-20.873 4.235-40.757 11.891-58.841l-51.346 12.308v77.821h42.708c-2.126-10.096-3.253-20.56-3.253-31.288z" fill="#303646"/><path d="m447.164 126.519h-382.328c-21.957 0-39.757 17.8-39.757 39.757 0 10.982 8.902 19.884 19.884 19.884h422.075c10.982 0 19.884-8.902 19.884-19.884 0-21.958-17.8-39.757-39.758-39.757z" fill="#d18f88"/><path d="m404.148 63.523v15h-296.296v-15c0-30.944 25.089-56.023 56.023-56.023h184.251c30.933 0 56.022 25.079 56.022 56.023z" fill="#d18f88"/><g><g><g><ellipse cx="167.632" cy="257.407" fill="#fb8999" rx="32.606" ry="25.966"/></g><g><ellipse cx="344.368" cy="257.407" fill="#fb8999" rx="32.606" ry="25.966"/></g></g></g><g><path d="m147.326 126.519h-82.49c-21.957 0-39.757 17.8-39.757 39.757 0 10.981 8.902 19.884 19.884 19.884h115.225c-8.089-18.264-12.661-38.429-12.862-59.641z" fill="#c9807c"/></g><path d="m203.518 7.5h-39.643c-30.933 0-56.023 25.079-56.023 56.022v15h46.771c9.13-28.218 26.335-52.799 48.895-71.022z" fill="#c9807c"/></g><g><path d="m411.648 63.523c0-35.026-28.496-63.523-63.523-63.523h-184.25c-35.026 0-63.522 28.497-63.522 63.523v55.496h-35.517c-26.058 0-47.257 21.2-47.257 47.257 0 15.1 12.284 27.384 27.384 27.384h24.743c-8.155 9.129-12.947 21.12-12.947 34.049 0 28.175 22.922 51.097 51.097 51.097 1.692 0 3.387-.103 5.079-.273 8.082 21.787 21.004 41.239 37.456 57.048-10.234 7.891-28.512 24.225-44.765 50.424-2.184 3.52-1.101 8.143 2.419 10.327 3.519 2.184 8.144 1.101 10.327-2.419 10.413-16.785 23.322-31.536 36.437-42.601v145.688h-66.281c.829-27.234 6.189-52.815 15.966-76.136 1.601-3.82-.197-8.215-4.018-9.816-3.821-1.602-8.215.198-9.816 4.018-11.443 27.297-17.245 57.387-17.245 89.435 0 4.142 3.358 7.5 7.5 7.5h350.17c4.142 0 7.5-3.358 7.5-7.5 0-73.304-31.917-134.149-76.978-168.915 16.454-15.81 29.378-35.264 37.46-57.052 1.691.17 3.386.273 5.078.273 28.175 0 51.097-22.922 51.097-51.097 0-12.929-4.792-24.92-12.947-34.049h24.743c15.1 0 27.384-12.284 27.384-27.384 0-26.058-21.199-47.257-47.257-47.257h-35.516c-.001-13.082-.001-42.443-.001-55.497zm-303.352 200.28c-20.085.25-36.538-16.043-36.538-36.094 0-15.421 9.635-28.966 24.091-34.049h10.992c-2.104 9.865-3.371 20.94-3.371 31.973-.001 12.914 1.7 26.047 4.826 38.17zm188.585 153.705c6.757 6.577 10.36 16.414 8.74 26.006-.623 3.688-3.52 6.584-7.207 7.207-13.505 2.281-26.921-5.689-32.374-18.027 6.837-1.991 12.839-5.995 17.224-11.083 4.604-1.046 9.778-2.638 13.617-4.103zm-40.881 1.622c-11.531 0-20.97-9.395-20.97-20.97v-21.435c6.146.852 13.798 1.438 20.97 1.438 6.508 0 14.048-.478 20.97-1.438v21.435c0 11.629-9.481 20.97-20.97 20.97zm-35.97-45.243v24.273c0 1.686.172 3.85.389 5.308-22.741-8.689-37.807-26.383-45.911-48.899 14.017 8.867 29.421 15.416 45.522 19.318zm-4.911 43.62c4.268 1.629 9.354 3.135 13.618 4.103 4.354 5.057 10.352 9.082 17.223 11.083-5.45 12.331-18.858 20.311-32.374 18.027-3.688-.623-6.583-3.519-7.207-7.206-1.509-8.94 1.397-18.664 8.74-26.007zm76.462-14.038c.222-1.504.389-3.654.389-5.309v-24.273c16.102-3.901 31.505-10.451 45.522-19.317-1.47 4.085-3.375 8.55-5.834 13.101-9.262 17.136-22.653 29.142-40.077 35.798zm-121.774-24.042c8.055 13.226 18.615 23.745 31.292 31.277-8.072 10.003-11.61 22.869-9.509 35.308 1.685 9.978 9.521 17.813 19.498 19.499 17.286 2.922 34.977-5.054 44.912-20.036 9.916 14.948 27.585 22.963 44.912 20.036 9.977-1.686 17.813-9.521 19.499-19.499 2.101-12.439-1.437-25.305-9.509-35.309 12.676-7.532 23.237-18.05 31.292-31.275v117.572h-172.387zm253.664 117.573h-66.278v-145.649c20.974 17.797 63.788 63.947 66.278 145.649zm-107.584-147.576c-90.9 44.117-197.417-22.485-197.417-123.792 0-10.854 1.27-21.49 3.77-31.973h267.52c2.447 10.261 3.771 20.86 3.771 31.973 0 53.462-30.897 101.086-77.644 123.792zm124.355-121.716c0 19.9-16.236 36.298-36.538 36.095 3.156-12.24 4.827-25.368 4.827-38.171 0-10.722-1.22-21.889-3.371-31.973h10.992c14.455 5.084 24.09 18.629 24.09 34.049zm39.179-61.432c0 6.829-5.555 12.384-12.384 12.384-14.789 0-373.357 0-422.075 0-6.829 0-12.384-5.555-12.384-12.384 0-17.787 14.471-32.257 32.257-32.257h382.329c17.787 0 32.257 14.47 32.257 32.257zm-364.069-102.753c0-26.756 21.767-48.523 48.522-48.523h184.251c26.756 0 48.523 21.767 48.523 48.523v7.5h-69.004c-4.142 0-7.5 3.358-7.5 7.5s3.358 7.5 7.5 7.5h69.004v32.996h-281.296v-32.997h182.292c4.142 0 7.5-3.358 7.5-7.5s-3.358-7.5-7.5-7.5h-182.292z"/><path d="m186.635 211.583c-4.142 0-7.5 3.357-7.5 7.5v13.329c0 4.142 3.358 7.5 7.5 7.5s7.5-3.358 7.5-7.5v-13.329c0-4.143-3.358-7.5-7.5-7.5z"/><path d="m325.365 211.583c-4.142 0-7.5 3.357-7.5 7.5v13.329c0 4.142 3.358 7.5 7.5 7.5s7.5-3.358 7.5-7.5v-13.329c0-4.143-3.358-7.5-7.5-7.5z"/><path d="m279.215 226.36c-3.122-2.721-7.86-2.396-10.582.727-3.189 3.66-7.794 5.759-12.633 5.759s-9.444-2.099-12.633-5.759c-2.721-3.123-7.459-3.448-10.582-.727s-3.448 7.459-.727 10.582c6.039 6.93 14.765 10.904 23.942 10.904s17.903-3.975 23.942-10.904c2.721-3.123 2.396-7.86-.727-10.582z"/></g></g></svg>