<?xml version="1.0" standalone="no"?>
<!DOCTYPE svg PUBLIC "-//W3C//DTD SVG 20010904//EN"
 "http://www.w3.org/TR/2001/REC-SVG-20010904/DTD/svg10.dtd">
<svg version="1.0" xmlns="http://www.w3.org/2000/svg"
 width="237.000000pt" height="229.000000pt" viewBox="0 0 237.000000 229.000000"
 preserveAspectRatio="xMidYMid meet">

<g transform="translate(0.000000,229.000000) scale(0.100000,-0.100000)"
fill="#000000" stroke="none">
<path d="M1090 1862 c-47 -27 -166 -95 -265 -153 -99 -58 -210 -123 -247 -143
l-68 -38 0 -189 0 -189 40 0 40 0 0 164 c0 119 3 166 13 173 16 13 574 333
580 333 2 0 92 -50 198 -112 107 -61 239 -137 294 -168 l100 -57 3 -167 2
-166 35 0 35 0 0 189 0 189 -177 102 c-98 57 -225 131 -283 165 -158 93 -198
115 -207 115 -4 0 -46 -22 -93 -48z"/>
<path d="M1068 1025 l-3 -505 -55 33 -55 33 -3 362 -2 362 -115 0 -115 0 0
-290 c0 -159 -3 -290 -6 -290 -4 0 -33 15 -65 32 l-59 33 0 137 0 138 -40 0
-40 0 2 -161 3 -162 329 -188 c181 -104 333 -189 338 -189 9 0 74 37 493 278
l170 97 3 163 2 162 -34 0 -35 0 -3 -137 -3 -137 -55 -32 c-30 -18 -61 -33
-67 -34 -10 0 -13 64 -13 290 l0 290 -110 0 -110 0 0 -359 0 -359 -57 -36 -58
-35 -3 505 -2 504 -115 0 -115 0 -2 -505z"/>
</g>
</svg>
